<?xml version="1.0" standalone="yes"?>
<svg xmlns="http://www.w3.org/2000/svg" width="200" height="200">
<path style="fill:#ffffff; stroke:none;" d="M0 0L0 200L200 200L200 0L0 0z"/>
<path style="fill:#ded3ab; stroke:none;" d="M27 79L23 84L27 79z"/>
<path style="fill:#9d9d9e; stroke:none;" d="M28 79L38 89L28 79z"/>
<path style="fill:#213337; stroke:none;" d="M24 83L24 84L33 94L25 94L25 100L45 100L45 81L38 81L38 89C33.6988 84.7021 30.0858 79.0812 24 83z"/>
<path style="fill:#9d9d9e; stroke:none;" d="M38 80L38 81L45 81L38 80M24 84L25 85L24 84M25 85L26 86L25 85M26 86L27 87L26 86z"/>
<path style="fill:#e2b009; stroke:none;" d="M46 86C46.2093 92.2976 53.0915 94.9586 52.6628 100.999C51.9237 111.415 40.4133 109.143 37 102L31 102C33.8322 129.47 74.4092 106.081 53.9452 89.419C51.5863 87.4984 48.8911 86.695 46 86z"/>
<path style="fill:#ded3ab; stroke:none;" d="M48.6667 86.3333L49.3333 86.6667L48.6667 86.3333z"/>
<path style="fill:#9d9d9e; stroke:none;" d="M27 87L28 88L27 87z"/>
<path style="fill:#ded3ab; stroke:none;" d="M51 87L52 88L51 87M103.667 87.3333L104.333 87.6667L103.667 87.3333z"/>
<path style="fill:#9d9d9e; stroke:none;" d="M28 88L29 89L28 88z"/>
<path style="fill:#ded3ab; stroke:none;" d="M53 88L54 89L53 88M67 88L68 89L67 88z"/>
<path style="fill:#9d9d9e; stroke:none;" d="M67 98C64.9332 86.7649 78.2923 91.0509 70 99L70 91L68 91L68 103C69.6105 102.008 70.8658 100.944 72.1551 99.517C73.1059 98.4643 74.2819 97.3114 74.8063 95.9606C79.8501 82.9701 56.6372 90.5779 67 98z"/>
<path style="fill:#ded3ab; stroke:none;" d="M73 88L74 89L73 88z"/>
<path style="fill:#9d9d9e; stroke:none;" d="M78 88C73.897 101.881 81.4453 105.324 94 103C92.5185 106.821 90.0602 110.337 95 112C95.3476 101.081 104.717 103.793 113 103C111.518 106.821 109.06 110.337 114 112C114.201 99.6534 125.804 107.706 128 100L127 100L125 102L125 94L130 94L130 93L125 93L125 89L124 89L121 93L121 94C123.645 96.6957 123.645 98.3043 121 101L120 94L117 95L115 103L114 103L114 95L113 95L110 102L111 95C109.125 96.4165 107.387 100.416 104.829 100.539C98.4127 100.846 101.519 90.844 105 89L102 94L102 95C112.183 91.7821 99.2913 83.6511 99.1489 93.9799C99.1252 95.7031 99.6069 97.3436 100 99L96 103L95 103L95 95L94 95L91 102L92 95L87 102L87 97L86 97L85 103L84 103C83.6739 99.1931 84.6102 97.722 88 96L88 95L79 103L80 88L78 88z"/>
<path style="fill:#ded3ab; stroke:none;" d="M123 88L123 93L124 93L125 88L123 88z"/>
<path style="fill:#9d9d9e; stroke:none;" d="M29 89L30 90L29 89z"/>
<path style="fill:#ded3ab; stroke:none;" d="M54 89L55 90L54 89M70 89L71 90L70 89M74 89L75 90L74 89M101 90L101 91L105 90L101 90z"/>
<path style="fill:#9d9d9e; stroke:none;" d="M30 90L31 91L30 90z"/>
<path style="fill:#ded3ab; stroke:none;" d="M55 90L56 91L55 90M65 90L66 91L65 90M67.6667 90.3333L68.3333 90.6667L67.6667 90.3333z"/>
<path style="fill:#ffffff; stroke:none;" d="M69 90L70 98C74.6701 95.423 74.5257 90.9223 69 90z"/>
<path style="fill:#ded3ab; stroke:none;" d="M75 90L76 91L75 90M79 90L79 94L80 94L79 90z"/>
<path style="fill:#ffffff; stroke:none;" d="M101 94L105 90L101 94z"/>
<path style="fill:#9d9d9e; stroke:none;" d="M31 91L32 92L31 91z"/>
<path style="fill:#ded3ab; stroke:none;" d="M56 91L57 92L56 91M64.3333 91.6667L64.6667 92.3333L64.3333 91.6667z"/>
<path style="fill:#9d9d9e; stroke:none;" d="M32 92L33 93L32 92z"/>
<path style="fill:#ded3ab; stroke:none;" d="M46.6667 92.3333L47.3333 92.6667L46.6667 92.3333M98 92L98 95L99 95L98 92M100 92L102 95L100 92M104 92L105 93L104 92M106 92L107 93L106 92M25 93L25 94L33 94L25 93M49 93L50 94L49 93M102.667 93.3333L103.333 93.6667L102.667 93.3333M50 94L51 95L50 94M80.3333 94.6667L80.6667 95.3333L80.3333 94.6667M86 94L87 95L86 94M117 94L118 95L117 94M121.667 94.3333L122.333 94.6667L121.667 94.3333M125 94L125 95L130 95L125 94M51 95L52 96L51 95M58 95L59 96L58 95M75 95L76 96L75 95M93 95L93 101L94 101L93 95M95 95L95 103L96 103L95 95M102 95L103 96L102 95M112 95L112 101L113 101L112 95M114 95L114 103L115 103L114 95M119.333 95.6667L119.667 96.3333L119.333 95.6667M123 95L123 100L124 100L123 95M64.3333 96.6667L64.6667 97.3333L64.3333 96.6667M85 96L85 102L84 102L84 98L83 98L84 103L85 103L85 96M91.3333 96.6667L91.6667 97.3333L91.3333 96.6667M110.333 96.6667L110.667 97.3333L110.333 96.6667M117 96L118 97L117 96M52 97L53 98L52 97M59 97L59 104L60 104L59 97M72 97L73 98L72 97M74 97L75 98L74 97M79.3333 97.6667L79.6667 98.3333L79.3333 97.6667z"/>
<path style="fill:#ffffff; stroke:none;" d="M84 97L84 102L85 102L84 97z"/>
<path style="fill:#ded3ab; stroke:none;" d="M89 97L89 100L90 100L89 97M99 97L100 98L99 97M101 97L102 98L101 97M108.333 97.6667L108.667 98.3333L108.333 97.6667M65.6667 98.3333L66.3333 98.6667L65.6667 98.3333M70 98L71 99L70 98M73 98L74 99L73 98M87 98L87 102L88 102L87 98z"/>
<path style="fill:#ffffff; stroke:none;" d="M118 98L120 102L118 98z"/>
<path style="fill:#ded3ab; stroke:none;" d="M72 99L73 100L72 99M81.3333 99.6667L81.6667 100.333L81.3333 99.6667M97.6667 99.3333L98.3333 99.6667L97.6667 99.3333M116 99L117 100L116 99M121.333 99.6667L121.667 100.333L121.333 99.6667M127 99L128 100L127 99z"/>
<path style="fill:#9d9d9e; stroke:none;" d="M25 100L25 101L45 101L25 100z"/>
<path style="fill:#ded3ab; stroke:none;" d="M70 100L71 101L70 100M117 100L118 101L117 100M128 100L129 101L128 100M30 101L30 105L31 105L31 102L37 102L30 101z"/>
<path style="fill:#ffffff; stroke:none;" d="M99 101L100 102L99 101z"/>
<path style="fill:#ded3ab; stroke:none;" d="M100 101L101 102L100 101M77 102L78 103L77 102M79 102L80 103L79 102M107.667 102.333L108.333 102.667L107.667 102.333M122.667 102.333L123.333 102.667L122.667 102.333M52 103L53 104L52 103M68.6667 103.333L69.3333 103.667L68.6667 103.333M78 103L79 104L78 103M82 103L83 104L82 103M85.6667 103.333L86.3333 103.667L85.6667 103.333M90 103L91 104L90 103M92 103L93 106L94 106L94 103L92 103M97 103L98 104L97 103M100 103L101 104L100 103M103 103L104 104L103 103M106 103L107 104L106 103M109 103L110 104L109 103M111 103L112 106L113 106L113 103L111 103M116 103L117 104L116 103M124 103L125 104L124 103M126 103L127 104L126 103M37 104L38 105L37 104M96 104L97 105L96 104M115 104L116 105L115 104M51 105L52 106L51 105M58.3333 105.667L58.6667 106.333L58.3333 105.667M95 105L95 111L96 111L95 105M114 105L114 110L115 110L114 105M31 106L32 107L31 106M50 106L51 107L50 106M92 106L93 107L92 106M111 106L112 107L111 106M40 107L41 108L40 107M49 107L50 108L49 107M91 107L92 108L91 107M93 107L93 111L94 111L93 107M110 107L111 108L110 107M112 107L112 111L113 111L112 107M32 108L33 109L32 108M42 108L43 109L42 108M46.6667 108.333L47.3333 108.667L46.6667 108.333M56 109L57 110L56 109M54 111L55 112L54 111M91 111L92 112L91 111M110 111L111 112L110 111M36 112L37 113L36 112M53 112L54 113L53 112M93 112L94 113L93 112M112 112L113 113L112 112M51 113L52 114L51 113M40 114L41 115L40 114M49 114L50 115L49 114z"/>
</svg>
